<mxfile host="app.diagrams.net" modified="2023-01-10T04:42:32.061Z" agent="5.0 (X11; Linux x86_64) AppleWebKit/537.36 (KHTML, like Gecko) Chrome/108.0.0.0 Safari/537.36" version="20.7.4" etag="L_8EJHsc02ansjqvIlTI" type="github">
  <diagram id="JLop5QC97o6r-xo9VGLU" name="Page-1">
    <mxGraphModel dx="989" dy="534" grid="1" gridSize="10" guides="1" tooltips="1" connect="1" arrows="1" fold="1" page="1" pageScale="1" pageWidth="850" pageHeight="1100" math="0" shadow="0">
      <root>
        <mxCell id="0" />
        <mxCell id="1" parent="0" />
        <mxCell id="83HDyshsgURMBBsu8p-M-9" style="edgeStyle=orthogonalEdgeStyle;rounded=0;orthogonalLoop=1;jettySize=auto;html=1;entryX=0.5;entryY=0;entryDx=0;entryDy=0;" edge="1" parent="1" source="83HDyshsgURMBBsu8p-M-1" target="83HDyshsgURMBBsu8p-M-7">
          <mxGeometry relative="1" as="geometry" />
        </mxCell>
        <mxCell id="83HDyshsgURMBBsu8p-M-32" style="edgeStyle=orthogonalEdgeStyle;rounded=0;orthogonalLoop=1;jettySize=auto;html=1;" edge="1" parent="1" source="83HDyshsgURMBBsu8p-M-1" target="83HDyshsgURMBBsu8p-M-28">
          <mxGeometry relative="1" as="geometry" />
        </mxCell>
        <mxCell id="83HDyshsgURMBBsu8p-M-1" value="itis_website_support&lt;br&gt;Bên khác đang làm" style="rounded=0;whiteSpace=wrap;html=1;fillColor=#f8cecc;strokeColor=#b85450;" vertex="1" parent="1">
          <mxGeometry x="20" y="130" width="120" height="60" as="geometry" />
        </mxCell>
        <mxCell id="83HDyshsgURMBBsu8p-M-3" style="edgeStyle=orthogonalEdgeStyle;rounded=0;orthogonalLoop=1;jettySize=auto;html=1;entryX=0.5;entryY=0;entryDx=0;entryDy=0;" edge="1" parent="1" source="83HDyshsgURMBBsu8p-M-2" target="83HDyshsgURMBBsu8p-M-1">
          <mxGeometry relative="1" as="geometry" />
        </mxCell>
        <mxCell id="83HDyshsgURMBBsu8p-M-2" value="contract (OCA)&lt;br&gt;Đang trong quá trình migrate" style="rounded=0;whiteSpace=wrap;html=1;fillColor=#fff2cc;strokeColor=#d6b656;" vertex="1" parent="1">
          <mxGeometry x="20" y="20" width="120" height="60" as="geometry" />
        </mxCell>
        <mxCell id="83HDyshsgURMBBsu8p-M-5" value="itis_issues_product" style="rounded=0;whiteSpace=wrap;html=1;fillColor=#dae8fc;strokeColor=#6c8ebf;" vertex="1" parent="1">
          <mxGeometry x="20" y="540" width="120" height="60" as="geometry" />
        </mxCell>
        <mxCell id="83HDyshsgURMBBsu8p-M-21" style="edgeStyle=orthogonalEdgeStyle;rounded=0;orthogonalLoop=1;jettySize=auto;html=1;entryX=0.5;entryY=0;entryDx=0;entryDy=0;" edge="1" parent="1" source="83HDyshsgURMBBsu8p-M-7" target="83HDyshsgURMBBsu8p-M-19">
          <mxGeometry relative="1" as="geometry" />
        </mxCell>
        <mxCell id="83HDyshsgURMBBsu8p-M-7" value="itis_support_repair" style="rounded=0;whiteSpace=wrap;html=1;" vertex="1" parent="1">
          <mxGeometry x="20" y="230" width="120" height="60" as="geometry" />
        </mxCell>
        <mxCell id="83HDyshsgURMBBsu8p-M-13" style="edgeStyle=orthogonalEdgeStyle;rounded=0;orthogonalLoop=1;jettySize=auto;html=1;entryX=1;entryY=0.5;entryDx=0;entryDy=0;" edge="1" parent="1" source="83HDyshsgURMBBsu8p-M-10" target="83HDyshsgURMBBsu8p-M-7">
          <mxGeometry relative="1" as="geometry" />
        </mxCell>
        <mxCell id="83HDyshsgURMBBsu8p-M-27" style="edgeStyle=orthogonalEdgeStyle;rounded=0;orthogonalLoop=1;jettySize=auto;html=1;entryX=0.5;entryY=0;entryDx=0;entryDy=0;" edge="1" parent="1" source="83HDyshsgURMBBsu8p-M-10" target="83HDyshsgURMBBsu8p-M-23">
          <mxGeometry relative="1" as="geometry" />
        </mxCell>
        <mxCell id="83HDyshsgURMBBsu8p-M-10" value="itis_support_stock" style="rounded=0;whiteSpace=wrap;html=1;" vertex="1" parent="1">
          <mxGeometry x="250" y="290" width="120" height="60" as="geometry" />
        </mxCell>
        <mxCell id="83HDyshsgURMBBsu8p-M-14" style="edgeStyle=orthogonalEdgeStyle;rounded=0;orthogonalLoop=1;jettySize=auto;html=1;entryX=1;entryY=0.5;entryDx=0;entryDy=0;" edge="1" parent="1" source="83HDyshsgURMBBsu8p-M-11" target="83HDyshsgURMBBsu8p-M-7">
          <mxGeometry relative="1" as="geometry" />
        </mxCell>
        <mxCell id="83HDyshsgURMBBsu8p-M-38" style="edgeStyle=orthogonalEdgeStyle;rounded=0;orthogonalLoop=1;jettySize=auto;html=1;entryX=-0.024;entryY=0.502;entryDx=0;entryDy=0;entryPerimeter=0;" edge="1" parent="1" source="83HDyshsgURMBBsu8p-M-11" target="83HDyshsgURMBBsu8p-M-29">
          <mxGeometry relative="1" as="geometry">
            <mxPoint x="210" y="530.6896551724138" as="targetPoint" />
            <Array as="points">
              <mxPoint x="210" y="200" />
              <mxPoint x="210" y="530" />
            </Array>
          </mxGeometry>
        </mxCell>
        <mxCell id="83HDyshsgURMBBsu8p-M-11" value="itis_repair_enhanced" style="rounded=0;whiteSpace=wrap;html=1;" vertex="1" parent="1">
          <mxGeometry x="250" y="170" width="120" height="60" as="geometry" />
        </mxCell>
        <mxCell id="83HDyshsgURMBBsu8p-M-15" style="edgeStyle=orthogonalEdgeStyle;rounded=0;orthogonalLoop=1;jettySize=auto;html=1;entryX=1;entryY=0.5;entryDx=0;entryDy=0;" edge="1" parent="1" source="83HDyshsgURMBBsu8p-M-12" target="83HDyshsgURMBBsu8p-M-10">
          <mxGeometry relative="1" as="geometry" />
        </mxCell>
        <mxCell id="83HDyshsgURMBBsu8p-M-18" style="edgeStyle=orthogonalEdgeStyle;rounded=0;orthogonalLoop=1;jettySize=auto;html=1;entryX=1;entryY=0.5;entryDx=0;entryDy=0;" edge="1" parent="1" source="83HDyshsgURMBBsu8p-M-12" target="83HDyshsgURMBBsu8p-M-11">
          <mxGeometry relative="1" as="geometry" />
        </mxCell>
        <mxCell id="83HDyshsgURMBBsu8p-M-12" value="itis_sale_order_return" style="rounded=0;whiteSpace=wrap;html=1;" vertex="1" parent="1">
          <mxGeometry x="580" y="230" width="120" height="60" as="geometry" />
        </mxCell>
        <mxCell id="83HDyshsgURMBBsu8p-M-17" style="edgeStyle=orthogonalEdgeStyle;rounded=0;orthogonalLoop=1;jettySize=auto;html=1;entryX=0.5;entryY=0;entryDx=0;entryDy=0;" edge="1" parent="1" source="83HDyshsgURMBBsu8p-M-16" target="83HDyshsgURMBBsu8p-M-12">
          <mxGeometry relative="1" as="geometry" />
        </mxCell>
        <mxCell id="83HDyshsgURMBBsu8p-M-16" value="product_warranty (OCA)&lt;br&gt;Đang trong quá trình migrate" style="rounded=0;whiteSpace=wrap;html=1;fillColor=#fff2cc;strokeColor=#d6b656;" vertex="1" parent="1">
          <mxGeometry x="580" y="20" width="120" height="60" as="geometry" />
        </mxCell>
        <mxCell id="83HDyshsgURMBBsu8p-M-22" style="edgeStyle=orthogonalEdgeStyle;rounded=0;orthogonalLoop=1;jettySize=auto;html=1;entryX=0.5;entryY=0;entryDx=0;entryDy=0;" edge="1" parent="1" source="83HDyshsgURMBBsu8p-M-19" target="83HDyshsgURMBBsu8p-M-5">
          <mxGeometry relative="1" as="geometry" />
        </mxCell>
        <mxCell id="83HDyshsgURMBBsu8p-M-19" value="itis_rma_reason_code" style="rounded=0;whiteSpace=wrap;html=1;" vertex="1" parent="1">
          <mxGeometry x="20" y="390" width="120" height="60" as="geometry" />
        </mxCell>
        <mxCell id="83HDyshsgURMBBsu8p-M-24" style="edgeStyle=orthogonalEdgeStyle;rounded=0;orthogonalLoop=1;jettySize=auto;html=1;entryX=1;entryY=0.5;entryDx=0;entryDy=0;" edge="1" parent="1" source="83HDyshsgURMBBsu8p-M-23" target="83HDyshsgURMBBsu8p-M-19">
          <mxGeometry relative="1" as="geometry" />
        </mxCell>
        <mxCell id="83HDyshsgURMBBsu8p-M-23" value="endor_support_enhancement" style="rounded=0;whiteSpace=wrap;html=1;" vertex="1" parent="1">
          <mxGeometry x="225" y="390" width="170" height="60" as="geometry" />
        </mxCell>
        <mxCell id="83HDyshsgURMBBsu8p-M-30" style="edgeStyle=orthogonalEdgeStyle;rounded=0;orthogonalLoop=1;jettySize=auto;html=1;" edge="1" parent="1" source="83HDyshsgURMBBsu8p-M-28" target="83HDyshsgURMBBsu8p-M-23">
          <mxGeometry relative="1" as="geometry" />
        </mxCell>
        <mxCell id="83HDyshsgURMBBsu8p-M-28" value="itis_support_account" style="rounded=0;whiteSpace=wrap;html=1;" vertex="1" parent="1">
          <mxGeometry x="460" y="390" width="120" height="60" as="geometry" />
        </mxCell>
        <mxCell id="83HDyshsgURMBBsu8p-M-31" style="edgeStyle=orthogonalEdgeStyle;rounded=0;orthogonalLoop=1;jettySize=auto;html=1;" edge="1" parent="1" source="83HDyshsgURMBBsu8p-M-29" target="83HDyshsgURMBBsu8p-M-23">
          <mxGeometry relative="1" as="geometry" />
        </mxCell>
        <mxCell id="83HDyshsgURMBBsu8p-M-29" value="endor_stock_enhancement" style="rounded=0;whiteSpace=wrap;html=1;" vertex="1" parent="1">
          <mxGeometry x="230" y="500" width="160" height="60" as="geometry" />
        </mxCell>
      </root>
    </mxGraphModel>
  </diagram>
</mxfile>
